<svg width="113" height="114" viewBox="0 0 113 114" fill="none" xmlns="http://www.w3.org/2000/svg">
<path d="M56.6935 0.620117C87.7224 0.620117 112.863 25.8413 112.863 56.9702C112.863 88.099 87.7224 113.32 56.6935 113.32C25.6646 113.32 0.524414 88.099 0.524414 56.9702C0.524414 25.8413 25.6646 0.620117 56.6935 0.620117ZM30.4209 66.9678H56.6935V83.0775C56.6935 85.5087 59.6379 86.7357 61.3365 85.0089L87.2241 58.9015C88.2886 57.8336 88.2886 56.1295 87.2241 55.0615L61.3365 28.9315C59.6152 27.2046 56.6935 28.4316 56.6935 30.8628V46.9726H30.4209C28.9261 46.9726 27.703 48.1996 27.703 49.6992V64.2411C27.703 65.7408 28.9261 66.9678 30.4209 66.9678Z" fill="#A40101"/>
</svg>
