<svg width="120" height="121" viewBox="0 0 120 121" fill="none" xmlns="http://www.w3.org/2000/svg">
<path d="M108.415 60.3244C108.415 87.3763 86.5584 109.295 59.6012 109.295C32.6441 109.295 10.7876 87.3763 10.7876 60.3244C10.7876 33.2883 32.6441 11.3535 59.6012 11.3535C86.5584 11.3535 108.415 33.2883 108.415 60.3244ZM60.9111 27.5455C50.1845 27.5455 43.3431 32.0787 37.9709 40.1354C37.2749 41.1791 37.5077 42.5869 38.5053 43.3457L45.3351 48.541C46.3595 49.3204 47.8192 49.1349 48.6152 48.122C52.1314 43.6478 54.5423 41.0534 59.8941 41.0534C63.9151 41.0534 68.8888 43.6496 68.8888 47.5614C68.8888 50.5186 66.4554 52.0373 62.4852 54.2704C57.855 56.8743 51.7281 60.1153 51.7281 68.2229V69.0128C51.7281 70.3214 52.7856 71.3823 54.09 71.3823H65.1124C66.4168 71.3823 67.4744 70.3214 67.4744 69.0128V68.7495C67.4744 63.1294 83.8478 62.8954 83.8478 47.6867C83.8478 36.2335 72.0056 27.5455 60.9111 27.5455ZM59.6012 76.5164C54.6087 76.5164 50.5471 80.591 50.5471 85.5997C50.5471 90.6081 54.6087 94.683 59.6012 94.683C64.5938 94.683 68.6554 90.6081 68.6554 85.5997C68.6554 80.591 64.5938 76.5164 59.6012 76.5164Z" fill="#A40101"/>
</svg>
