<svg width="512" height="512" viewBox="0 0 512 512" fill="none" xmlns="http://www.w3.org/2000/svg">
<g clip-path="url(#clip0_25_29)">
<path d="M504.1 71.03L440.1 7.03003C430.725 -2.34497 415.54 -2.34497 406.16 7.03003C396.78 16.405 396.785 31.59 406.16 40.97L422.1 56L384 94.06L328.97 39.03C319.595 29.655 304.41 29.655 295.03 39.03C286.563 47.497 286.157 60.5 292.983 69.89L442.083 218.99C446.3 222.1 451.1 224 456 224C462.141 224 468.28 221.656 472.97 216.969C482.345 207.594 482.345 192.409 472.97 183.029L417.9 128L456 89.94L471.03 104.97C475.7 109.7 481.9 112 488 112C494.1 112 500.28 109.656 504.97 104.969C514.3 95.59 514.3 80.41 504.1 71.03ZM208.8 154.1L267.36 212.66C273.61 218.91 273.61 229.04 267.36 235.28C264.2 238.4 260.1 240 256 240C251.9 240 247.8 238.4 244.7 235.3L186.1 176.8L144.8 218.1L203.36 276.66C209.61 282.91 209.61 293.04 203.36 299.28C200.2 302.4 196.1 304 192 304C187.9 304 183.8 302.4 180.7 299.3L122.1 240.8L82.75 280.1C70.74 292.1 64 308.4 64 325.4V414.08L7.03003 471.05C-2.34497 480.425 -2.34497 495.61 7.03003 504.99C11.72 509.7 17.86 512 24 512C30.14 512 36.28 509.656 40.97 504.969L97.94 448H186.63C203.6 448 219.88 441.256 231.89 429.25L419.49 241.65L270.39 92.55L208.8 154.1Z" fill="#CA5714"/>
</g>
<defs>
<clipPath id="clip0_25_29">
<rect width="512" height="512" fill="white"/>
</clipPath>
</defs>
</svg>
